# xmcd CD database file
# Copyright (C) 1993-1998 Ti Kan
# 
# Track frame offsets:
#     150
#     14027
#     27782
#     45190
#     57925
#     74737
#     93105
#     109090
#     127072
#     143022
#     161935
#     183137
#     199177
#     227102
#     242890
# 
# Disc length: 3468 seconds
# 
# Revision: 1
# Processed by: cddbd v1.4b41PL1 Copyright (c) Steve Scherf et al.
# Submitted via: DiscPlay 4.0.4
# 
DISCID=d10d8a0f
DTITLE=Boy George - "Cheapness And Beauty"
DYEAR=1900
DGENRE=
TTITLE0=Funtime
TTITLE1=Satan's Butterfly Ball
TTITLE2=Sad
TTITLE3=God Don't Hold A Grude
TTITLE4=Genocide Peroxid
TTITLE5=If I Could Fly
TTITLE6=Same Thing In Reverse
TTITLE7=Cheapness And Beauty
TTITLE8=Evil Is So Civilised
TTITLE9=Blindman
TTITLE10=Your Love Is What I Am
TTITLE11=Unfinished Business
TTITLE12=Il Adore
TTITLE13=Same Thing In Reverse (Acoustic Version)
TTITLE14=Cheapness And Beauty (Acoustic Version)
EXTD=
EXTT0=
EXTT1=
EXTT2=
EXTT3=
EXTT4=
EXTT5=
EXTT6=
EXTT7=
EXTT8=
EXTT9=
EXTT10=
EXTT11=
EXTT12=
EXTT13=
EXTT14=
PLAYORDER=
